<svg xmlns="http://www.w3.org/2000/svg" viewBox="0 0 338.15 248.8"><defs><style>.cls-1{fill:gray;}</style></defs><title>sig</title><g id="Layer_2" data-name="Layer 2"><g id="Layer_1-2" data-name="Layer 1"><path class="cls-1" d="M337.64,4.63c-.18-.15-.19-.51-.26-.77a19,19,0,0,0-.49-2,3.3,3.3,0,0,0-3-1.72,5.74,5.74,0,0,1-2.33,0,4,4,0,0,0-2.82.3,6.44,6.44,0,0,1-1.86.51,4.9,4.9,0,0,0-3.4.94,1.22,1.22,0,0,1-.64.25,10.88,10.88,0,0,0-4.17,1.46C316.18,5,313.42,5.69,311,7.26c-3.62,2.36-7.73,3.84-11.29,6.35-1.67,1.17-3.48,2.14-5.21,3.23-.79.49-1.52,1.06-2.3,1.57-.54.35-1.15.61-1.65,1-1.32,1-2.51,2.23-3.91,3.1a30.76,30.76,0,0,0-4.32,3.25c-1.13,1-2.51,1.76-3.67,2.75-3.67,3.15-7.37,6.27-10.9,9.56a146,146,0,0,0-10.84,10.79q-1.69,2-3.32,4c-.88,1.07-1.76,2.15-2.58,3.27-1.44,2-2.85,4-4.26,6a15.62,15.62,0,0,0-1,1.64,12.81,12.81,0,0,1-1.32,2.58c-1.36,1.54-2,3.44-2.94,5.18A19,19,0,0,0,240,75.4a37.84,37.84,0,0,0-1.44,6.21,68.37,68.37,0,0,0-.08,7.62A26.43,26.43,0,0,0,238.8,92a6.63,6.63,0,0,0,.46,2.61c.35.66.12,1.63.46,2.3a17.85,17.85,0,0,1,1.11,3.87c.09.36.16.73.28,1.08.6,1.78,1.69,3.41,1.75,5.37a.75.75,0,0,0,.08.27,3.08,3.08,0,0,1-.94,3.76q-4.18,4.1-8.37,8.2c-1.29,1.25-2.74,2.37-3.91,3.73a28.73,28.73,0,0,1-4.48,4.09,27.5,27.5,0,0,0-3.45,2.95,18.82,18.82,0,0,1-2,2.21l-1.63,1.3c-1.27,1-2.53,2-3.84,3-1.5,1.09-3.06,2.1-4.59,3.15q-1.09.75-2.16,1.52c-1.42,1-2.77,2.15-4.25,3.07a18.32,18.32,0,0,0-3.2,2.17,19.07,19.07,0,0,1-2.45,1.77c-1.14.78-2.3,1.55-3.45,2.32-2.07,1.39-4.13,2.79-6.2,4.17-1.39.93-2.82,1.8-4.2,2.74-3.53,2.4-7,4.89-10.59,7.2a36.17,36.17,0,0,0-4.13,2.78,1,1,0,0,1-.61.28c-.2,0-.37-.26-.64-.47a1.58,1.58,0,0,1-1.18,1.85,10.92,10.92,0,0,0-1.76,1.11c-.54.33-1.1.63-1.58.9a1.91,1.91,0,0,1-.39-.22c-1.15-1.37-2.2-1.38-3.48-.14a5.49,5.49,0,0,1-2,1.44,7.42,7.42,0,0,0-2.18,1.14,9.88,9.88,0,0,1-3.87,1.42,15.43,15.43,0,0,1-4.3.29c-2-.16-2.95-1.05-2.95-2.83a17.13,17.13,0,0,1,.2-1.9c-.81,0-1.21-.57-1.71-1.05-.9-.86-1.46-.75-2.3.14a7.6,7.6,0,0,0-1.53,2.43c-.13.33-.37.77-.66.87-1.23.41-1.63,1.6-2.44,2.4-.43.42-.73,1-1.18,1.37-2.11,1.81-4.25,3.58-6.38,5.37a20.33,20.33,0,0,1-2,1.66,4,4,0,0,1-2.23,1c.31-.38.47-.59.64-.78.76-.8.83-1.12.41-2-.62-1.25-1.54-2-2.44-1.68a10.1,10.1,0,0,0-2.71,1.37c-1.68,1.22-3.23,2.61-4.89,3.86s-3.1,2.2-4.65,3.29l-4.11,2.86c-1.51,1.06-3,2.11-4.53,3.2s-2.63,2.07-4,3c-2.5,1.59-5.1,3-7.62,4.62A47.35,47.35,0,0,1,82.08,206c-.46.18-1,.31-1.25-.17a1.43,1.43,0,0,1,.18-1.25,10.47,10.47,0,0,1,3.54-3,5.07,5.07,0,0,0,1.26-1c.46-.45.81-1,1.64-.68.18.08.6-.18.79-.39a13.92,13.92,0,0,1,4-3,6.74,6.74,0,0,0,2.28-1.79A4.43,4.43,0,0,1,97.06,193a4,4,0,0,0,1.4-.59,40.41,40.41,0,0,1,4.72-3.4c1.63-.88,2.93-2.36,4.65-3.21.26-.13.4-.49.63-.71a16.41,16.41,0,0,1,2.74-2.52,13.66,13.66,0,0,0,2.5-2c1.54-1.48,3.12-2.92,4.66-4.4a11.4,11.4,0,0,0,1.07-1.28c.57-.73.81-1.46,0-2.22a1.7,1.7,0,0,1-.33-.75c-.54-1.92-3.4-3.29-5.07-2.19a35.62,35.62,0,0,0-4.42,2.79c-2.43,2.15-5,4.12-7.63,6.06-3.61,2.69-7.08,5.58-10.44,8.58a69,69,0,0,0-7.45,7.12c-1.45,1.74-3.11,3.32-4.64,5a7.47,7.47,0,0,1-2.58,2.08c-1,.43-2,.92-3,1.44a57,57,0,0,1-9,4,33.73,33.73,0,0,1-5.1,1.38,30.27,30.27,0,0,1-6.66.61c-2.09-.13-4.19,0-6.05-1.23a7.09,7.09,0,0,0-1.67-.67,20.55,20.55,0,0,1-2.23-.72c-1.67-.8-1.83-1.67-.53-3,1.86-1.88,3.8-3.69,5.68-5.56s3.55-3.67,5.37-5.46c2.12-2.08,4.31-4.1,6.44-6.17,1-.94,1.84-2,2.81-2.92,2-2,4.09-3.92,6.12-5.91q4.09-4,8.13-8c.56-.56,1-1.22,1.56-1.77,2.91-2.86,6.08-5.45,8.74-8.57a39.81,39.81,0,0,1,3.1-3c1.75-1.66,3.51-3.3,5.27-4.95.14-.13.29-.24.42-.37,1.19-1.29,2.36-2.6,3.57-3.86.47-.49,1.21-.8,1.54-1.36,1-1.72,2.89-2.57,4.09-4.13a42.16,42.16,0,0,1,3.94-3.89c.91-.91,1.75-1.89,2.67-2.8,1.81-1.79,3.68-3.51,5.47-5.32a38.21,38.21,0,0,1,4.72-4.47,7.62,7.62,0,0,0,1.43-1.29c.65-.78,1.13-1.71,1.83-2.43,1.36-1.38,2.5-3,4.25-4a2.08,2.08,0,0,0,.83-.92,4.81,4.81,0,0,1,1.87-2.3c1.65-1.08,2.51-3.05,4.3-4,.15-.08.24-.28.36-.43.51-.66,1-1.37,1.53-2,2.09-2.23,4.23-4.42,6.33-6.65q1.47-1.56,2.87-3.19c.66-.77,1.21-1.63,1.88-2.4,1.92-2.21,3.88-4.38,5.79-6.59.39-.45.64-1,1-1.48,1.51-1.81,3.11-3.55,4.56-5.4,2-2.58,4-5.23,5.93-7.88,1.43-1.93,2.87-3.86,4.2-5.86a72.68,72.68,0,0,0,5.21-9c.35-.74.79-1.44,1.14-2.19.59-1.24,1.14-2.5,1.7-3.75.32-.71.64-1.43.95-2.14.11-.25.3-.54.26-.78-.19-1.09.85-2,.34-3.16,0-.06.14-.21.2-.32a4.9,4.9,0,0,0,.57-1.17,10.83,10.83,0,0,0-.57-5.77,6.45,6.45,0,0,0-1.37-2.37,10.79,10.79,0,0,0-10.14-3,40,40,0,0,0-8,2.52c-.55.23-1.17.31-1.69.58-2.37,1.26-4.72,2.56-7.08,3.84l-.12.07c-2.12,1.23-4.3,2.38-6.34,3.73-2.44,1.61-4.78,3.38-7.16,5.08-1.08.78-2.22,1.5-3.24,2.35-2.41,2-4.72,4.16-7.15,6.15-1.54,1.26-3,2.61-4.43,4-.76.73-1.74,1.23-2.52,1.94-1.75,1.59-3.45,3.24-5.17,4.86-.5.47-1,.91-1.52,1.41-1.71,1.82-3.37,3.69-5.1,5.5-1.13,1.18-2.34,2.29-3.52,3.43-.56.55-1.1,1.12-1.69,1.63a26.37,26.37,0,0,0-2.55,2.91c-1.55,1.77-3.3,3.35-4.93,5-1,1.06-2,2.19-3,3.29-.8.89-1.61,1.78-2.4,2.69s-1.61,1.92-2.43,2.86c-.58.66-1.21,1.28-1.78,1.95-1.4,1.65-2.39,3.59-4,5.08a34,34,0,0,0-3.54,4.28c-.43.54-.82,1.1-1.25,1.63s-1.08,1.16-1.56,1.79c-1.27,1.65-2.45,3.37-3.78,5a28.91,28.91,0,0,0-2.09,2.92c-.89,1.4-1.92,2.72-2.93,4.05-1.29,1.7-2.69,3.33-3.9,5.08-1.5,2.16-2.84,4.44-4.28,6.64-1.25,1.9-2.59,3.75-3.82,5.67-2,3.07-3.91,6.18-5.85,9.28a2,2,0,0,0-.24.5,12.29,12.29,0,0,1-2.48,4,16.31,16.31,0,0,0-1.32,2.11c-.68,1.26-1.31,2.55-2,3.82-.58,1.1-1.3,2.15-1.77,3.29-1,2.43-2.1,4.81-3.34,7.14a26.66,26.66,0,0,0-1.32,3.19,15.53,15.53,0,0,0-.73,2.37,16.72,16.72,0,0,1-1.66,4.4,2,2,0,0,0-.18.67,11.49,11.49,0,0,1-1,3.85,2.24,2.24,0,0,0-.23,2.38c.1.16-.12.51-.18.77-.17.8-.64,1.57-.24,2.42a4.8,4.8,0,0,1-.18,3.64,1.84,1.84,0,0,0,.15,1.69c.2.33.44.88.3,1.11-.58.94.06,1.58.39,2.31a8.08,8.08,0,0,1,.45,1.12c.15.53.23,1.07.34,1.61a2.32,2.32,0,0,1-.62,2.29c-1,.92-2,1.83-3,2.74-1.37,1.26-2.83,2.43-4.09,3.79a63.47,63.47,0,0,1-5.68,5.71c-.57.48-1.15.94-1.72,1.42l-9.46,8a4.06,4.06,0,0,1-2.36.84c.92-1.46,1.69-2.77,2.54-4a3.76,3.76,0,0,0,.63-2.46c-.1-1.78,0-3.53,1.27-5a1.24,1.24,0,0,0,.27-1,2.17,2.17,0,0,0-1.66-1.53,1.91,1.91,0,0,0-2.26.91c-.54,1-1,2-1.44,3a8.51,8.51,0,0,1,0,1.65,15.36,15.36,0,0,1-.71,2.23,3.68,3.68,0,0,1-.57.93c-.84,1.09-1.71,2.16-2.56,3.25a34.38,34.38,0,0,0-3,5.31A9.37,9.37,0,0,0,0,235.74c-.2,2.83,1.22,3.74,3.8,3,.49-.14.87-.66,1.3-1a3.74,3.74,0,0,1,1-.69A12.47,12.47,0,0,0,9.62,235c1.17-.88,2-2.22,3.57-2.59a1,1,0,0,0,.61-.64c.07-.84.75-1.14,1.24-1.6s1-1,1.53-1.4a14.93,14.93,0,0,1,2.58-2.26,3.41,3.41,0,0,0,1.93-2.11c.09-.35.52-.62.81-.91,1.77-1.78,3.87-3.2,5.47-5.15.46-.57,1.08-1,1.59-1.54.82-.87,1.62-1.77,2.42-2.65a7.09,7.09,0,0,1,.57-.6l4.28-3.72c.41-.36.8-.75,1.16-1.09.5.18.94.52,1.24.42.73-.23,1.11.12,1.59.53a9.63,9.63,0,0,0,1.55.93c.4.23.81.45,1.22.66a7.14,7.14,0,0,0,1.73.81,15.83,15.83,0,0,1,3.16,1c.63.26,1.44.63,2,.44a2,2,0,0,1,2.32.54l.6-.22a5.66,5.66,0,0,1,3.23-.4,8,8,0,0,0,3.13-.39c.23,0,.42-.35.6-.55s.37-.47.56-.73c.83,1.1,1.25,1.2,2.22.57l1.53-1a3.22,3.22,0,0,1,2.6-.72,1.24,1.24,0,0,0,.8-.16c1.25-.68,2.48-1.4,3.73-2.1a1.06,1.06,0,0,1,.52-.18,3.81,3.81,0,0,0,2.68-1.31,3.06,3.06,0,0,1,.88-.38c.33,1,.62,1.71.85,2.48a2.61,2.61,0,0,0,3.41,1.74,4.52,4.52,0,0,1,2.13,0,1.58,1.58,0,0,0,1.31-.15c1.51-1,3.42-1.13,4.78-2.45a3.68,3.68,0,0,1,1.73-.86,8.16,8.16,0,0,0,4-2.6,5.77,5.77,0,0,1,3-1.59,3.27,3.27,0,0,0,2.55-1.91,2.14,2.14,0,0,1,1.57-1.44,3.21,3.21,0,0,0,.85-.47c1.17-.66,2.33-1.34,3.51-2a6.55,6.55,0,0,0,1.51-1.14,15.06,15.06,0,0,1,3.48-2.7,15.17,15.17,0,0,0,3.88-2.62c.08-.08.23-.08.37-.12.09.21.16.38.25.54a2.52,2.52,0,0,0,3.18,1.59,4.76,4.76,0,0,0,2.56-1,2.68,2.68,0,0,1,1.11-.57,9.31,9.31,0,0,0,3.79-2.21,29.61,29.61,0,0,1,3.44-2.6,16.09,16.09,0,0,0,1.62-1.31c.63-.55,1.18-1.19,1.84-1.69,1.33-1,2.81-1.83,3.77-3.27a.75.75,0,0,1,.33-.24,3.12,3.12,0,0,0,1.62-1.66,4.24,4.24,0,0,1,2.41-2.08,1,1,0,0,1,.19.13c.11.15.21.3.31.46a4.78,4.78,0,0,0,4.2,2.58,1.15,1.15,0,0,1,.54.1,5.59,5.59,0,0,0,4,.46,1.91,1.91,0,0,1,.63.11,1.58,1.58,0,0,1-1.08,1.25,36.43,36.43,0,0,0-3.27,1.85c-1.68,1.07-3.3,2.23-5,3.29-.93.59-2,1-2.9,1.59-2.13,1.4-4.21,2.86-6.32,4.3-.57.39-1.14.8-1.74,1.15-1.6.93-3.25,1.78-4.83,2.74a51.49,51.49,0,0,1-8.32,4.19,62.07,62.07,0,0,1-8.38,3.06,4.09,4.09,0,0,0-.63.29c-1.57.68-3.12,1.39-4.71,2-2.29.9-4.62,1.7-6.9,2.62-2.92,1.18-5.82,2.43-8.72,3.66-1.44.62-2.86,1.29-4.31,1.91s-2.93,1.18-4.39,1.77c-1.08.43-2.18.79-3.23,1.28-2.07.95-4.1,2-6.15,2.95-2.72,1.3-5.45,2.61-8.19,3.89-.71.33-1.49.53-2.2.88-2.2,1.08-4.36,2.23-6.56,3.32q-4.24,2.1-8.5,4.16c-1,.46-1.93.87-2.9,1.31a6.19,6.19,0,0,0-.88.42,24.44,24.44,0,0,1-6.56,3.29,2.23,2.23,0,0,0-.75.36c-2.33,1.88-5.3,2.42-7.88,3.77-1.52.79-3.12,1.43-4.7,2.1a18.53,18.53,0,0,1-2.07.73c-1.64.48-3.47.61-4.72,1.93-1.1,1.15-2.29,1-3.57.63l-.39-.12c.09.14.18.28.26.43s.24.43.37.64l.2.2.51.29a17.64,17.64,0,0,0,2.08.52,50.58,50.58,0,0,0,10.41-.25,48.19,48.19,0,0,0,7-1.58l.07,0a8.39,8.39,0,0,1,2.43-2.18,3.48,3.48,0,0,1,1-.47,7.11,7.11,0,0,1,1.12-.35h.05a3.12,3.12,0,0,0,.69-.62,3.13,3.13,0,0,1,3.14-1.28l.78-1.35c.56.1,1.05.36,1.42.23a23,23,0,0,0,3.33-1.4,3.19,3.19,0,0,1,1.78-.65h0a1.17,1.17,0,0,0,.77-.39.5.5,0,0,0,.09-.15,2.6,2.6,0,0,1,2.08-1.66c.89-.22,1.62-.92,2.63-.77l.34,0,2-1,.17-.22a2,2,0,0,1,2.17-.92h0l2-.95a9.4,9.4,0,0,1,1.74-1.13c1.19-.59,2.44-1,3.67-1.57a10.55,10.55,0,0,1,2.13-.93l.28-.06a8.74,8.74,0,0,0,3-1.37c.36-.24.71-.49,1.06-.76a5.57,5.57,0,0,1,2.82-1l2.18-1,.07-.18,2.78-1.1,1.79-.71a1.19,1.19,0,0,0,.32-.22l.13-.11a6.44,6.44,0,0,1,3.31-1.63,1.34,1.34,0,0,0,.65-.23,12.91,12.91,0,0,1,5.43-2.3c.21,0,.51-.16.58-.32a2.24,2.24,0,0,1,2.23-1.35,2.13,2.13,0,0,0,.78-.29L98,213.93a9.78,9.78,0,0,0,2.27-1.26,1.7,1.7,0,0,1,1.57-.53c1.7-1,3.14-1.92,4.64-2.7,2.12-1.1,4.3-2.1,6.45-3.15a1.71,1.71,0,0,0,.69-.46c.57-.87,1.53-1,2.38-1.34,1-.41,2.26,0,3.15-.88,0,0,.18,0,.26,0a3.78,3.78,0,0,0,1.19-.18,24.71,24.71,0,0,0,3.29-1.79c1.39-1,3.06-1.19,4.58-1.77,1.71-.65,3.29-1.72,5.2-1.88a9.21,9.21,0,0,0,1.92-.8c1.63-.56,3.26-1.09,4.9-1.58a9.75,9.75,0,0,1,2-.38c.85-.07,1.68,0,2.18-.94.1-.18.46-.25.72-.31,1.89-.45,3.79-.87,5.67-1.33a3.37,3.37,0,0,0,1.3-.47,7.12,7.12,0,0,1,2.43-1,15.57,15.57,0,0,1,4.21-.88c.39,0,.75-.33,1.15-.46s.85-.35,1.16-.23a2.33,2.33,0,0,0,2.73-.85c.32-.34.66-.62,1.08-.39.77.42,1.4.11,2.12-.14a24.76,24.76,0,0,1,2.56-.56,1.65,1.65,0,0,0,.61-.24,9.28,9.28,0,0,1,6.64-1.55c.13-.18.25-.52.46-.59.87-.26,1.77-.44,2.66-.65a4.83,4.83,0,0,0,1.34-.35,10.66,10.66,0,0,1,3.78-1.26c1.36-.24,2.7-.61,4-.93a7.67,7.67,0,0,1,2.42-.53,6.68,6.68,0,0,0,4-1.1A2.29,2.29,0,0,0,197,181a1.61,1.61,0,0,0,.71-.18,2.37,2.37,0,0,0,.53-.37c.22-.2.71-.1,1.06-.2s.79-.17.94-.41a2.11,2.11,0,0,1,2.28-.91,6.9,6.9,0,0,0,4.32-.72,9.58,9.58,0,0,1,2.91-.72.6.6,0,0,1,.39.11l.17.1,2.07-.48a2.54,2.54,0,0,1,.75-.28l1.38-.21a17.12,17.12,0,0,0,3.5-.78c.26-.1.53-.21.78-.33a3.58,3.58,0,0,1,.82-.1c.5-.1,1-.18,1.52-.25a18.23,18.23,0,0,0,3.84-.81,7.58,7.58,0,0,0,1-.44c1-.56,2-1.15,3.26-.63a.59.59,0,0,0,.41-.06,15.19,15.19,0,0,1,4.78-.91c.89-.1,1.74-.28,2-1.09,1.48.06,2.84.13,4.19.17h0a2.45,2.45,0,0,0,.93-.17,13,13,0,0,0,1.23-.61,10.65,10.65,0,0,1,3.93-1.23c.88-.06,1.6,0,2-.69a4.88,4.88,0,0,0,1.18.31c1.35,0,2.7,0,4-.2a13.39,13.39,0,0,0,2.66-.7c.45-.15.84-.41,1.31,0a3.35,3.35,0,0,1,0,.44c.28,0,.57,0,.85,0l-.52-.07a6.55,6.55,0,0,0,.88.06h.06a19.92,19.92,0,0,0,2.46-.8c3.29-1.43,6.57-2.93,9.78-4.52a50.72,50.72,0,0,0,7.72-5c-.29-.1-.59-.19-.89-.28a4.09,4.09,0,0,1-1.17.22l-.18-.19-.23.08a6.24,6.24,0,0,1-1.22.29l.29,0a20,20,0,0,1-2.57.71c-.58.15-1.11.49-1.69.64-1.66.41-3.34.73-5,1.14q-5.28,1.3-10.54,2.67a9.3,9.3,0,0,1-2,.66c-1.91,0-3.56,1-5.38,1.32-2.25.42-4.62.47-6.69,1.65a.82.82,0,0,1-.27.05c-1.55.25-3.18,0-4.6.91-.07,0-.18,0-.28,0-.81.18-1.63.36-2.43.57-.59.15-1.18.56-1.73.5-1.45-.16-2.69.63-4.07.71a14.63,14.63,0,0,0-2.47.36c-1.66.39-3.3.88-5,1.27-1.9.45-3.8.83-5.71,1.25-1.31.28-2.62.6-3.94.86-1,.2-2.11.28-3.15.51-2.36.51-4.7,1.09-7.05,1.62a43.18,43.18,0,0,0-5.12,1.27,42.25,42.25,0,0,1-4.72,1.1c-2.76.64-5.54,1.26-8.29,2-2.47.62-4.93,1.31-7.38,2-.63.17-1.24.4-1.89-.22.24-.39.4-.94.74-1.11a5.58,5.58,0,0,0,1.8-2c.67-.9.57-1.39-.36-2.09s-.94-.87-.14-1.58a8.18,8.18,0,0,0,1.74-2.15,3.85,3.85,0,0,1,1.2-1.1c.49-.34,1.17-.49,1.54-.91,1.19-1.39,2.72-2.49,3.53-4.2a1.86,1.86,0,0,1,.6-.57c1.07-.8,2.17-1.57,3.23-2.38a8.06,8.06,0,0,0,1.31-1.23,4.72,4.72,0,0,1,2.5-1.68c.72-.19,1.48-.36,1.45-1.38,0-.18.22-.41.39-.55a7.75,7.75,0,0,1,2.84-2,2.25,2.25,0,0,0,.82-.5c1.43-1.29,2.9-2.52,4.36-3.77s3-2.22,4.11-3.8a1.4,1.4,0,0,1,.56-.4c.62-.3,1.26-.55,1.87-.87.22-.12.54-.35.55-.55.06-.88.57-1.21,1.34-1.33a.62.62,0,0,0,.42-.33c.27-.79.92-1.19,1.5-1.73a33.27,33.27,0,0,1,5.06-4.08,4.94,4.94,0,0,0,1-1,4.79,4.79,0,0,1,.61-.75c2.17-1.6,4.36-3.16,6.54-4.75a9.62,9.62,0,0,0,1.16-1,5.32,5.32,0,0,1,2.84-1.88c.2,0,.38-.23.55-.37.62-.49,1.22-1,1.85-1.47,1-.74,2.08-1.38,3-2.2a7.21,7.21,0,0,1,3.6-2c.56-.81,1-1.56,1.57-2.25a1.33,1.33,0,0,1,.9-.5c1.58,0,2.13-1.32,2.91-2.23a8,8,0,0,0,.92-2.5,1.42,1.42,0,0,0,.55-.21c.66-.61,1.28-1.26,1.92-1.9-.53-.85.37-1.19.62-1.77a6.43,6.43,0,0,0,.58-1.69,2.21,2.21,0,0,1,.88-1.63c.74-.58,1.66-1.08,1.78-2.21,0-.18.3-.34.46-.5.64-.6,1.31-1.16,1.91-1.79s.83-1.09,1.3-1.59c.85-.92,1.73-1.81,2.63-2.69,1.22-1.21,2.47-2.4,3.71-3.59.67-.64,1.39-1.23,2-1.9,1.12-1.18,2.17-2.42,3.28-3.62.82-.89,1.65-1.76,2.52-2.6.59-.57,1.29-1,1.9-1.59A16,16,0,0,0,271.91,86c.59-.7,1.07-1.49,1.68-2.17.77-.86,1.7-1.58,2.43-2.47a22.39,22.39,0,0,1,4.72-4.71,4.54,4.54,0,0,0,2.13-2.46,1.53,1.53,0,0,1,.65-.71c1.46-.94,2-2.79,3.65-3.55.18-.09.28-.36.41-.56A23.9,23.9,0,0,1,289,67.2c.54-.68,1.23-1.24,1.82-1.88s.82-1.13,1.32-1.59c.74-.68,1.61-1.23,2.36-1.91a2.8,2.8,0,0,0,.83-1.25,1.84,1.84,0,0,1,1-1.26,2.5,2.5,0,0,0,.63-.53c.66-.72,1.28-1.47,1.95-2.18s1.32-1.34,2-2l1.56-1.53a15.23,15.23,0,0,0,3.22-3.62s.07-.06.1-.09c.94-1.08,1.84-2.19,2.81-3.24a9.1,9.1,0,0,1,1.83-1.64,3.73,3.73,0,0,0,1.82-2,2.2,2.2,0,0,1,.49-.64c.3-.35.62-.68.92-1,.91-1,1.79-2.12,2.72-3.15s1.8-1.83,2.65-2.79c2.16-2.47,3.8-5.39,6.48-7.41a2.32,2.32,0,0,0,.4-.57c.39-.57.79-1.13,1.17-1.71a4.18,4.18,0,0,0,.71-1.18,3.61,3.61,0,0,1,1.9-2.28,3.22,3.22,0,0,0,1.07-.86c.74-1.12,1.43-2.28,2.06-3.46s1.25-2.55,1.86-3.83a.73.73,0,0,1,.14-.24,14.59,14.59,0,0,0,2.64-3.89c.14-.23.4-.54.34-.72-.27-.75.12-1.37.27-2S338.34,5.24,337.64,4.63ZM96.27,188.13c1.1-1.05,2.43-1.88,3.09-3.36.15-.34.72-.51,1.11-.73s.94-.27,1.06-.56c.45-1.09,1.42-1.22,2.33-1.52a6.31,6.31,0,0,0,1.2-.6q.88-.51,1.74-1.07c.43-.28.83-.6,1.26-.87a2.17,2.17,0,0,1,1.89-.53c-.95.82-1.75,1.56-2.61,2.24-1.28,1-2.6,2-3.89,3a18.62,18.62,0,0,1-1.51,1.22,14.93,14.93,0,0,0-2.27,1.26c-.64.58-1.08,1.34-2,1.68a7,7,0,0,0-1.39.92c-.31.22-.61.47-1.07-.12C95.58,188.81,95.92,188.46,96.27,188.13Zm-3.88,2.79c.38-.45.6-.48,2-.52a3.08,3.08,0,0,1-2.19,1.33C92.25,191.37,92.25,191.08,92.39,190.92ZM40.66,200.7A3.18,3.18,0,0,1,40,201l-1.52-4.6a.89.89,0,0,1-.07-.27c0-2.08-.59-4.15-.06-6.24a2.28,2.28,0,0,1,.19-.66,6.6,6.6,0,0,0,.68-3.24,13.58,13.58,0,0,1,.45-2c.28-1.17.57-2.33.85-3.5,0-.13,0-.32,0-.41a12.58,12.58,0,0,0,1.25-2.74c.26-.58.43-1.19.65-1.77.81-2.11,1.45-4.3,2.36-6.37.78-1.77,1.85-3.42,2.75-5.14.6-1.14,1.12-2.31,1.68-3.46a7.25,7.25,0,0,1,.56-1.11c.54-.75,1.18-1.44,1.69-2.22s.79-1.48,1.18-2.23l2.13-4.05A8.89,8.89,0,0,1,56,149a7.42,7.42,0,0,0,2.12-3.58c.2-.9,1.14-1.62,1.73-2.44s1.35-1.89,2-2.86c1.11-1.7,2.18-3.42,3.28-5.12.23-.35.56-.62.81-1a4,4,0,0,0,.86-1.25c.2-.8.41-1.51,1.25-1.86a.19.19,0,0,0,.09-.1c.43-1.65,2.26-2.39,2.66-4.06,1.38-1.13,2-2.81,3.17-4.15a21.69,21.69,0,0,0,3-4.27,7.92,7.92,0,0,1,1.61-2.1,5.67,5.67,0,0,0,1.08-1.56,5.18,5.18,0,0,1,1.57-1.66A1.7,1.7,0,0,0,82,112a2.26,2.26,0,0,1,1.13-1.5,2.54,2.54,0,0,0,1-1.1c.62-1.51,1.94-2.45,2.86-3.72a26.43,26.43,0,0,1,2.18-2.81c1.13-1.2,2.06-2.6,3.22-3.71s2.16-2.63,3.34-3.86,2.51-2.84,3.76-4.27c.87-1,1.69-2.05,2.6-3,1.14-1.21,2.36-2.35,3.53-3.54,1.54-1.57,3.06-3.15,4.61-4.72,1-1.06,2.07-2.14,3.18-3.12a45,45,0,0,0,3.46-3.48c.77-.85,1.67-1.58,2.46-2.41a34.83,34.83,0,0,1,2.55-2.46c1-.89,2.09-1.79,3.1-2.73s2-1.93,3-2.88a10,10,0,0,1,1.1-.81,2.66,2.66,0,0,0,.57-.37,21.83,21.83,0,0,1,4.51-3.86c.55-.39,1-1,1.49-1.39,1.37-1.11,2.74-2.21,4.15-3.25,2-1.51,4.09-3,6.15-4.44,1.5-1.08,3-2.18,4.54-3.19,1.12-.73,2.32-1.33,3.5-2s2.35-1.25,3.54-1.84c1.48-.74,3-1.44,4.46-2.18.54-.27,1-.59,1.58-.87,2.27-1.16,4.6-.77,6.93-.25a20.26,20.26,0,0,1,3.33.85c1.51.62,2.78,1.52,3,3.42a15.24,15.24,0,0,0,.84,3.8,4.22,4.22,0,0,1,0,3A76.13,76.13,0,0,1,172.31,61c-1.17,2.12-2.86,3.88-3.84,6.11a16.46,16.46,0,0,1-1.78,2.28c-1,1.44-1.89,2.93-2.84,4.39a7.06,7.06,0,0,1-.52.65c-.87,1.06-1.76,2.11-2.63,3.19s-1.47,1.91-2.23,2.85c-1.13,1.39-2.3,2.75-3.43,4.15-.58.72-1,1.52-1.63,2.24-.8,1-1.65,1.9-2.49,2.83a31.6,31.6,0,0,1-2.5,2.81,55.25,55.25,0,0,0-4.23,4.92c-1.54,1.73-3.16,3.38-4.75,5.07-1.08,1.15-2.15,2.3-3.25,3.44-2.31,2.4-4.64,4.78-6.95,7.18-.38.4-.66.9-1,1.32s-1,1-1.44,1.5-.87,1-1.32,1.42c-.94,1-1.9,1.9-2.85,2.85-1.4,1.4-2.78,2.82-4.2,4.2-3.76,3.65-7.56,7.27-11.31,10.94-1.36,1.33-2.58,2.78-3.92,4.13-1,1-2.1,1.94-3.14,2.92-.71.66-1.41,1.34-2.1,2-2.07,2-4.13,4.08-6.22,6.1-1.33,1.29-2.75,2.49-4,3.82-2.07,2.12-4.05,4.32-6.11,6.45-.87.9-1.86,1.69-2.76,2.56-1.3,1.26-2.55,2.57-3.84,3.84-1.69,1.65-3.43,3.25-5.11,4.91-1.91,1.89-3.77,3.85-5.68,5.74-1.19,1.18-2.45,2.28-3.66,3.43-2.69,2.57-5.33,5.18-8,7.72-1.83,1.71-3.46,3.6-5.25,5.34-1.17,1.13-2.3,2.3-3.46,3.44S41.7,199.71,40.66,200.7Zm96.51-8.82a2.66,2.66,0,0,0,1.26-.51,25.36,25.36,0,0,1,4.77-3.29,14.42,14.42,0,0,1,3-1.72c.15,0,.24-.27.39-.38a10.64,10.64,0,0,1,1.64-1.22,12.44,12.44,0,0,0,3.15-1.9,5,5,0,0,1,1.16-.6l.09,1c.69.24,1-.35,1.39-.55a6.47,6.47,0,0,1,1.37-.53.68.68,0,0,1,.85.7c0,1.06.75,1.65,1.32,2.36l1,1.29c-1.46.48-2.73,1-4.05,1.3a39.08,39.08,0,0,0-7.7,2.33,7.23,7.23,0,0,1-1.32.35c-.31.07-.7,0-.93.2-1.15.88-2.62.77-3.87,1.32-.45.2-1.17.5-1.22-1a2.88,2.88,0,0,1-2.75,2c-.56.07-1.08.39-1.69.48C135.66,192.87,136.15,192.06,137.17,191.88ZM182,164.05c-2,1.52-3.81,3.37-5.71,5.08-.2.19-.45.33-.66.52-.9.79-1.78,1.62-2.7,2.38-1.25,1-2.54,2-3.81,3a12.71,12.71,0,0,0-1.15,1,15.79,15.79,0,0,1-4.3,3.23,5.36,5.36,0,0,0-1,.76l-1.54,1.29c.25-2,.28-3.62,1.2-5.07.1-.16.1-.39.23-.5,1.36-1.16,2.42-2.75,4.21-3.31a9.4,9.4,0,0,0,3.06-1.88c.54-.43,1.1-.84,1.68-1.23.85-.56,1.74-1.05,2.57-1.65A65.17,65.17,0,0,1,181.2,163a7.87,7.87,0,0,1,1.34-.42,2,2,0,0,1,.19-.8,3.56,3.56,0,0,1,.84-.7h0A3.15,3.15,0,0,1,182,164.05Zm2.12-1.92-.56-1,1.52-.26C184.86,161.49,184.86,161.49,184.14,162.13Zm2.77-2.05-.24-.12.31-.63.24.12ZM329,14c-.55.85-1.15,1.68-1.69,2.54-.27.43-.44.92-.68,1.37a3.32,3.32,0,0,1-.6.91,34.81,34.81,0,0,0-3.82,4.78c-1.79,2.32-3.54,4.66-5.36,7-1.44,1.82-3,3.58-4.46,5.35s-3.23,3.82-4.87,5.71c-.33.39-.76.69-1.09,1.08-.56.66-1.08,1.37-1.63,2.05-.26.33-.51.66-.79,1-.9,1-1.79,2-2.72,3-1.44,1.49-2.92,2.94-4.35,4.44-.8.84-1.52,1.75-2.32,2.59s-1.89,1.8-2.74,2.78c-1.61,1.84-3.13,3.76-4.73,5.62-1.24,1.45-2.51,2.86-3.8,4.27q-2.66,2.92-5.37,5.79c-2.11,2.23-4.24,4.43-6.36,6.65l-7.67,8.07c-.89.94-1.82,1.83-2.71,2.77-1.46,1.55-2.89,3.12-4.35,4.67-1.11,1.18-2.26,2.33-3.39,3.49-1.55,1.59-3.1,3.18-4.66,4.76a10,10,0,0,1-1.16.86,6.22,6.22,0,0,1-1.36-3.38c0-.18.1-.4,0-.54-.71-1.59-1.44-3.18-2.21-4.86.5-.57.08-1.2-.26-1.79a5,5,0,0,1-.81-3.95,7.63,7.63,0,0,0-.24-2.2c-.13-1.8-.27-3.61-.3-5.41a13.91,13.91,0,0,1,.41-2.46c-.56-.58-.41-1.3.07-2.11a3,3,0,0,0,.35-1.56,2.55,2.55,0,0,1,.88-2.36,1.49,1.49,0,0,0,.68-1.56,1.66,1.66,0,0,1,.41-1.4c.6-.41.37-1.43,1.27-1.55.1,0,.24-.4.23-.61-.05-1.52,1.05-2.67,1.28-4.1a.53.53,0,0,1,.24-.33c1.67-.92,2-2.81,3.06-4.19l2.16-2.89c.39-.52.83-1,1.19-1.53a10.25,10.25,0,0,1,2.44-3c.88-2,3-2.82,4.07-4.66.15-.26.51-.4.73-.63a11,11,0,0,0,.73-1c.16-.22.25-.56.45-.66,1.19-.56,1.79-1.71,2.67-2.57.39-.39.81-.75,1.24-1.1.66-.54,1.6-.66,2-1.62.14-.32,1-.35,1.65-.56l-.42-.8a28.07,28.07,0,0,1,2.4-1.83c1-.63,1.44-1.76,2.29-2.53.24-.21.4-.54.66-.68a27,27,0,0,0,4.64-3.7q1.92-1.61,3.83-3.23a1.28,1.28,0,0,1,1.67,0l1.92-1.42-1.3-.28a6.45,6.45,0,0,1,2.15-1.61,4.82,4.82,0,0,0,1.91-1.31A2.56,2.56,0,0,1,292,23a2,2,0,0,0,1.86-1.29c.45-.95,1.62-1.59,2.55-2.27s1.71-.94,2.51-1.48c.56-.38,1-.31,1.65.31a11.13,11.13,0,0,0,.67-1,6.33,6.33,0,0,1,3.67-2.81,16.11,16.11,0,0,0,1.61-1,1.49,1.49,0,0,1,1-.22c.53.15.9,0,1-.45.14-.81.68-1,1.31-.94a2.75,2.75,0,0,0,2.13-.84,1.6,1.6,0,0,1,1.23-.38c1,.21,1.6-.62,2.38-1,.14-.06.13-.49.2-.82l7.66-2.18-.26-.94a7.9,7.9,0,0,1,4.53-1.15l-.57.41-.67.45c1.16.11,2.11.18,3.06.28a5,5,0,0,1,1.09.26c.75.26.86.72.88,1.5C331.5,10,330.25,12,329,14Z"/></g></g></svg>